# xmcd
#
# Track frame offsets:
#	150
#	13892
#	28312
#	40807
#	61840
#	77000
#	89827
#	107892
#	126572
#	142232
#	157250
#	172095
#	191760
#	212175
#	228310
#	243557
#	259512
#	280110
#
# Disc length: 3988 seconds
#
# Revision: 0
# Processed by: cddbd v1.5.2PL0 Copyright (c) Steve Scherf et al.
# Submitted via: audiograbber 1.83.01
#
DISCID=180f9212
DTITLE=Various Artist - Whole Lotta Soul 1972 - 1973
DYEAR=1900
DGENRE=
TTITLE0=The Supremes  - Your Wonderful,Sweet Sweet Love 
TTITLE1=The Spinners - I'll Be Around
TTITLE2=Aretha Franklin  - Day Dreamer
TTITLE3=Gladys Knight and The Pips  - Midnight Train To Georgia
TTITLE4=The Spinners - One Of A Kind (Love Affair)
TTITLE5=Barbara Mason - Give Me Your Love
TTITLE6=Barry White - I'm Gonna Love You Just A Little More
TTITLE7=Sylvia  - Pillow Talk
TTITLE8=Mark IV - Honey I Still Love You
TTITLE9=Brighter Side Of Darkness - Love Jones 
TTITLE10=The Stylistics - Betcha By Golly,Wow 
TTITLE11=Jerry Butler  - Ain't Understanding Mellow
TTITLE12=The Dramatics  - In The Rain
TTITLE13=Aretha Franklin  - Angel
TTITLE14=The Independents - Leaving Me 
TTITLE15=Luther Ingram - (If Loving You Is Wrong) I Don't Want To Be Right 
TTITLE16=Johnnie Taylor - I Believe In You (You Believe In Me)
TTITLE17=Jerry Butler - Close To You
EXTD=
EXTT0=
EXTT1=
EXTT2=
EXTT3=
EXTT4=
EXTT5=
EXTT6=
EXTT7=
EXTT8=
EXTT9=
EXTT10=
EXTT11=
EXTT12=
EXTT13=
EXTT14=
EXTT15=
EXTT16=
EXTT17=
PLAYORDER=
